#!OML:ASF E:\Style4\Style4.ASF
:FULLY-SPECIFIED
:DEGREES
1279
root 0.262744 17.9523 -1.04833 4.40214 -2.18538 1.98471
lowerback 6.26367 3.13092 -0.126995
upperback -0.576128 4.13737 -0.64453
thorax -4.0638 2.04858 -0.993415
lowerneck -4.14142 -5.89467 -5.87854
upperneck -1.19871 -7.62037 4.86489
head 0.772517 -3.75654 2.37369
rclavicle -2.98674e-014 1.07344e-014
rhumerus 57.2031 -17.7322 -51.9598
rradius 33.6699
rwrist -66.6107
rhand -7.81136 13.5046
rfingers 7.12502
rthumb 18.0903 -15.6741
lclavicle -2.98674e-014 1.07344e-014
lhumerus 54.2303 8.50242 41.1041
lradius 55.6987
lwrist 80.3791
lhand 2.587 29.2382
lfingers 7.12502
lthumb 28.0658 57.1587
rfemur -16.3949 0.501344 15.8088
rtibia 28.99
rfoot -15.3071 -15.4272
rtoes -13.9095
lfemur -14.7052 -0.613119 -22.2241
ltibia 27.463
lfoot -17.2984 11.3671
ltoes -14.1491
1280
root 0.267077 17.9567 -1.0393 4.4693 -2.17004 1.94505
lowerback 6.2295 3.14096 -0.0631113
upperback -0.616547 4.15582 -0.644367
thorax -4.08175 2.05623 -1.0299
lowerneck -4.17468 -5.9488 -5.87939
upperneck -1.08989 -7.6937 4.88313
head 0.817988 -3.79297 2.37478
rclavicle 2.71093e-014 7.55382e-015
rhumerus 57.0503 -18.7632 -52.246
rradius 33.3741
rwrist -66.0201
rhand -7.83024 13.4652
rfingers 7.12502
rthumb 18.0722 -15.7152
lclavicle 2.71093e-014 7.55382e-015
lhumerus 53.6337 9.07447 40.9401
lradius 55.1969
lwrist 80.1956
lhand 2.43338 29.0865
lfingers 7.12502
lthumb 27.919 57.031
rfemur -16.3234 0.51596 15.8302
rtibia 28.7819
rfoot -15.2774 -15.4063
rtoes -14.0207
lfemur -14.6857 -0.674373 -22.199
ltibia 27.3726
lfoot -17.3835 11.4219
ltoes -13.8865
1281
root 0.271916 17.9609 -1.03071 4.51387 -2.18056 1.90966
lowerback 6.22514 3.13476 -0.0021542
upperback -0.655725 4.15251 -0.637499
thorax -4.11618 2.05304 -1.05761
lowerneck -4.21975 -5.99696 -5.9104
upperneck -0.954901 -7.75776 4.90556
head 0.875003 -3.82458 2.38218
rclavicle -5.55106e-014 -1.33186e-014
rhumerus 56.915 -19.732 -52.5004
rradius 33.0704
rwrist -65.8417
rhand -7.79192 13.627
rfingers 7.12502
rthumb 18.109 -15.55
lclavicle -5.55106e-014 -1.33186e-014
lhumerus 52.9517 9.6819 40.7821
lradius 54.7191
lwrist 79.7592
lhand 2.08975 28.7429
lfingers 7.12502
lthumb 27.5904 56.7404
rfemur -16.2414 0.559014 15.844
rtibia 28.6012
rfoot -15.3122 -15.3378
rtoes -14.0081
lfemur -14.6482 -0.722221 -22.1778
ltibia 27.3002
lfoot -17.4228 11.4032
ltoes -13.6072
1282
root 0.274979 17.9653 -1.023 4.55647 -2.18927 1.84911
lowerback 6.24973 3.11578 0.0358569
upperback -0.702649 4.13192 -0.591427
thorax -4.17977 2.04191 -1.03274
lowerneck -4.31557 -5.98954 -5.9921
upperneck -0.763832 -7.74382 4.93125
head 0.957 -3.81663 2.40016
rclavicle 8.54774e-015 -5.1684e-015
rhumerus 56.8631 -20.6375 -52.804
rradius 32.7193
rwrist -65.7803
rhand -7.95331 13.7939
rfingers 7.12502
rthumb 17.9538 -15.3974
lclavicle 8.54774e-015 -5.1684e-015
lhumerus 52.1617 10.3177 40.6342
lradius 54.2566
lwrist 79.217
lhand 2.80059 29.3896
lfingers 7.12502
lthumb 28.27 57.2765
rfemur -16.1828 0.641131 15.9021
rtibia 28.4599
rfoot -15.2009 -15.4521
rtoes -14.285
lfemur -14.6149 -0.768298 -22.1156
ltibia 27.2173
lfoot -17.4553 11.342
ltoes -13.0207
1283
root 0.279026 17.9694 -1.01677 4.64482 -2.183 1.7918
lowerback 6.26762 3.08021 0.0699345
upperback -0.78352 4.08896 -0.548552
thorax -4.27524 2.01946 -1.00767
lowerneck -4.26676 -5.91644 -6.03989
upperneck -0.748471 -7.64746 4.96057
head 0.951615 -3.76881 2.42307
rclavicle 4.93731e-014 2.38542e-015
rhumerus 56.7914 -21.5083 -53.0909
rradius 32.4143
rwrist -65.7008
rhand -8.04475 13.7909
rfingers 7.12502
rthumb 17.8658 -15.4084
lclavicle 4.93731e-014 2.38542e-015
lhumerus 51.2473 10.9065 40.2903
lradius 53.8848
lwrist 78.8412
lhand 3.12112 29.5557
lfingers 7.12502
lthumb 28.5763 57.3915
rfemur -16.1922 0.718313 15.9544
rtibia 28.3567
rfoot -15.053 -15.6077
rtoes -14.3026
lfemur -14.6432 -0.789238 -22.0609
ltibia 27.119
lfoot -17.4173 11.3467
ltoes -13.1436
1284
root 0.284651 17.9718 -1.00918 4.73741 -2.18129 1.85718
lowerback 6.23754 3.05035 0.00793931
upperback -0.842973 4.04454 -0.548349
thorax -4.32504 1.99853 -0.969209
lowerneck -4.2047 -5.82183 -6.07539
upperneck -0.786358 -7.52248 4.99794
head 0.924976 -3.70664 2.44853
rclavicle 3.24764e-014 3.97569e-015
rhumerus 56.7471 -22.4808 -53.437
rradius 32.1385
rwrist -65.3427
rhand -7.75369 13.7063
rfingers 7.12502
rthumb 18.1458 -15.4673
lclavicle 3.24764e-014 3.97569e-015
lhumerus 50.3521 11.4546 39.8623
lradius 53.5348
lwrist 78.6849
lhand 3.08536 29.4935
lfingers 7.12502
lthumb 28.5421 57.335
rfemur -16.2362 0.751691 15.8618
rtibia 28.3013
rfoot -15.0108 -15.6736
rtoes -14.2809
lfemur -14.6679 -0.846868 -22.1454
ltibia 27.0057
lfoot -17.42 11.3389
ltoes -12.8956
1285
root 0.290949 17.973 -1.00057 4.76423 -2.18325 1.89184
lowerback 6.23864 3.02065 -0.0279931
upperback -0.887193 4.00306 -0.527859
thorax -4.37612 1.97868 -0.92589
lowerneck -4.07023 -5.7342 -6.13667
upperneck -0.858885 -7.4092 5.05693
head 0.877437 -3.65091 2.48781
rclavicle 3.14577e-014 7.95139e-016
rhumerus 56.8582 -23.5097 -53.981
rradius 31.7066
rwrist -64.591
rhand -7.26316 13.5115
rfingers 7.12502
rthumb 18.6177 -15.6175
lclavicle 3.14577e-014 7.95139e-016
lhumerus 49.4518 11.9974 39.5032
lradius 53.1706
lwrist 78.5155
lhand 2.96362 29.4997
lfingers 7.12502
lthumb 28.4258 57.3608
rfemur -16.2035 0.728014 15.8105
rtibia 28.2657
rfoot -14.944 -15.6815
rtoes -14.3289
lfemur -14.5955 -0.890447 -22.1923
ltibia 26.8925
lfoot -17.5431 11.194
ltoes -11.7192
1286
root 0.296107 17.9774 -0.992012 4.79537 -2.20077 1.83665
lowerback 6.22627 3.01773 0.0550773
upperback -0.91416 4.00608 -0.519533
thorax -4.39202 1.97812 -0.964007
lowerneck -4.0401 -5.72071 -6.14506
upperneck -0.853462 -7.39332 5.10801
head 0.875844 -3.64294 2.50755
rclavicle -2.47487e-014 7.7526e-015
rhumerus 56.7835 -24.4812 -54.2268
rradius 31.3416
rwrist -64.0087
rhand -7.12143 13.4416
rfingers 7.12502
rthumb 18.754 -15.6744
lclavicle -2.47487e-014 7.7526e-015
lhumerus 48.6684 12.5416 39.2687
lradius 52.7965
lwrist 78.2783
lhand 2.96887 29.5304
lfingers 7.12502
lthumb 28.4308 57.3906
rfemur -16.1561 0.747998 15.8666
rtibia 28.2143
rfoot -14.8126 -15.6772
rtoes -14.0903
lfemur -14.5289 -0.868397 -22.1524
ltibia 26.7784
lfoot -17.5434 11.2079
ltoes -11.6216
1287
root 0.301284 17.9809 -0.983911 4.85272 -2.21482 1.85979
lowerback 6.20557 3.02316 0.0690648
upperback -0.915429 4.01319 -0.549209
thorax -4.37847 1.98107 -1.00182
lowerneck -4.16229 -5.7218 -6.05446
upperneck -0.82566 -7.39247 5.08854
head 0.900975 -3.64132 2.48099
rclavicle 4.5795e-014 -6.75868e-015
rhumerus 56.5685 -25.3472 -54.1818
rradius 31.0568
rwrist -63.5514
rhand -7.56198 13.8668
rfingers 7.12502
rthumb 18.3303 -15.2895
lclavicle 4.5795e-014 -6.75868e-015
lhumerus 47.9461 13.1307 39.1161
lradius 52.4398
lwrist 78.0892
lhand 3.13345 29.6035
lfingers 7.12502
lthumb 28.5881 57.4374
rfemur -16.1367 0.795491 15.8125
rtibia 28.1238
rfoot -14.8445 -15.6876
rtoes -13.8668
lfemur -14.5251 -0.797849 -22.2131
ltibia 26.7046
lfoot -17.4285 11.3176
ltoes -12.5037
